<?xml version="1.0" encoding="UTF-8" standalone="no"?>
<!-- Created with Inkscape (http://www.inkscape.org/) -->

<svg
   xmlns:dc="http://purl.org/dc/elements/1.1/"
   xmlns:cc="http://creativecommons.org/ns#"
   xmlns:rdf="http://www.w3.org/1999/02/22-rdf-syntax-ns#"
   xmlns:svg="http://www.w3.org/2000/svg"
   xmlns="http://www.w3.org/2000/svg"
   xmlns:sodipodi="http://sodipodi.sourceforge.net/DTD/sodipodi-0.dtd"
   xmlns:inkscape="http://www.inkscape.org/namespaces/inkscape"
   id="svg2"
   version="1.1"
   inkscape:version="0.48.4 r9939"
   width="370.13187"
   height="366.28476"
   xml:space="preserve"
   sodipodi:docname="tor2web_square.eps"><metadata
     id="metadata8"><rdf:RDF><cc:Work
         rdf:about=""><dc:format>image/svg+xml</dc:format><dc:type
           rdf:resource="http://purl.org/dc/dcmitype/StillImage" /><dc:title></dc:title></cc:Work></rdf:RDF></metadata><defs
     id="defs6"><clipPath
       clipPathUnits="userSpaceOnUse"
       id="clipPath16"><path
         d="m 0,841.89 595.28,0 L 595.28,0 0,0 0,841.89 z"
         id="path18"
         inkscape:connector-curvature="0" /></clipPath><clipPath
       clipPathUnits="userSpaceOnUse"
       id="clipPath28"><path
         d="m 151.392,663.972 68.462,0 0,-66.082 -68.462,0 0,66.082 z"
         id="path30"
         inkscape:connector-curvature="0" /></clipPath><clipPath
       clipPathUnits="userSpaceOnUse"
       id="clipPath44"><path
         d="m 155.638,659.978 59.969,0 0,-58.094 -59.969,0 0,58.094 z"
         id="path46"
         inkscape:connector-curvature="0" /></clipPath><clipPath
       clipPathUnits="userSpaceOnUse"
       id="clipPath100"><path
         d="m 202.25,435.274 178.131,0 0,-171.938 -178.131,0 0,171.938 z"
         id="path102"
         inkscape:connector-curvature="0" /></clipPath><clipPath
       clipPathUnits="userSpaceOnUse"
       id="clipPath116"><path
         d="m 218.106,420.071 146.415,0 0,-141.533 -146.415,0 0,141.533 z"
         id="path118"
         inkscape:connector-curvature="0" /></clipPath></defs><sodipodi:namedview
     pagecolor="#ffffff"
     bordercolor="#666666"
     borderopacity="1"
     objecttolerance="10"
     gridtolerance="10"
     guidetolerance="10"
     inkscape:pageopacity="0"
     inkscape:pageshadow="2"
     inkscape:window-width="1920"
     inkscape:window-height="1056"
     id="namedview4"
     showgrid="false"
     fit-margin-top="0"
     fit-margin-left="0"
     fit-margin-right="0"
     fit-margin-bottom="0"
     inkscape:zoom="0.22425732"
     inkscape:cx="194.63599"
     inkscape:cy="315.86148"
     inkscape:window-x="0"
     inkscape:window-y="24"
     inkscape:window-maximized="1"
     inkscape:current-layer="g10" /><g
     id="g10"
     inkscape:groupmode="layer"
     inkscape:label="tor2web"
     transform="matrix(1.25,0,0,-1.25,-177.414,576.6045)"><g
       id="g3472"><path
         d="m 407.3262,344.9736 c 0,-59.451 -48.133,-107.646 -107.514,-107.646 -59.376,0 -124.508,25.392 -124.508,125.83 0,59.453 48.131,98.126 107.508,98.126 59.38,0 124.514,-56.857 124.514,-116.31"
         style="fill:#cb54b1;fill-opacity:1;fill-rule:nonzero;stroke:none"
         id="path94"
         inkscape:connector-curvature="0" /><g
         style="opacity:0.22999603"
         id="g106"
         clip-path="url(#clipPath100)"><g
           id="g108"
           transform="translate(380.3809,345.9824)"><path
             inkscape:connector-curvature="0"
             id="path110"
             style="fill:#ffffff;fill-opacity:1;fill-rule:nonzero;stroke:none"
             d="m 0,0 c 0,-45.646 -36.953,-82.646 -82.539,-82.646 -45.59,0 -95.592,19.495 -95.592,96.603 0,45.645 36.95,75.335 82.537,75.335 C -50.004,89.292 0,45.642 0,0" /></g></g><g
         style="opacity:0.30000299"
         id="g122"
         clip-path="url(#clipPath116)"><g
           id="g124"
           transform="translate(361.5176,346.6865)"><path
             inkscape:connector-curvature="0"
             id="path126"
             style="fill:#ffffff;fill-opacity:1;fill-rule:nonzero;stroke:none"
             d="m 0,0 c 0,-35.981 -29.127,-65.146 -65.06,-65.146 -35.932,0 -75.349,15.366 -75.349,76.146 0,35.979 29.13,59.382 65.058,59.382 C -39.412,70.382 0,35.975 0,0" /></g><g
           id="g128"
           transform="translate(286.167,414.0654)"><path
             inkscape:connector-curvature="0"
             id="path130"
             style="fill:#cb54b1;fill-opacity:1;fill-rule:nonzero;stroke:none"
             d="m 0,0 c -35.957,0 -62.055,-23.711 -62.055,-56.379 0,-60.453 39.342,-73.143 72.346,-73.143 34.218,0 62.057,27.878 62.057,62.143 C 72.348,-34.005 35.837,0 0,0 m 10.291,-135.527 c -29.262,0 -78.352,10.283 -78.352,79.148 0,36.149 28.624,62.385 68.061,62.385 38.81,0 78.354,-37.035 78.354,-73.385 0,-37.577 -30.534,-68.148 -68.063,-68.148" /></g></g><path
         d="m 320.9971,351.8672 c -0.28,8.139 -1.891,15.726 -4.489,22.241 l 8.273,0 c 4.679,-6.293 7.619,-13.942 8.125,-22.241 l -11.909,0 z m -4.872,-28.303 c 2.823,6.724 4.578,14.649 4.872,23.181 l 11.909,0 c -0.531,-8.72 -3.758,-16.717 -8.849,-23.181 l -7.932,0 z m -2.491,-5.12 5.658,0 c -3.107,-2.818 -6.648,-5.173 -10.498,-6.957 1.772,2.035 3.395,4.369 4.84,6.957 m -44.638,0 c 1.445,-2.588 3.067,-4.922 4.839,-6.957 -3.852,1.784 -7.39,4.139 -10.499,6.957 l 5.66,0 z m -7.362,28.301 c 0.293,-8.532 2.047,-16.457 4.872,-23.181 l -7.932,0 c -5.093,6.464 -8.316,14.461 -8.848,23.181 l 11.908,0 z m 4.49,27.363 c -2.6,-6.515 -4.211,-14.102 -4.49,-22.241 l -11.908,0 c 0.504,8.299 3.445,15.948 8.121,22.241 l 8.277,0 z m 2.354,5.123 -6.127,0 c 3.343,3.233 7.218,5.913 11.484,7.894 -1.984,-2.279 -3.783,-4.931 -5.357,-7.894 m 40.316,7.894 c 4.269,-1.981 8.144,-4.661 11.483,-7.894 l -6.127,0 c -1.572,2.963 -3.37,5.615 -5.356,7.894 m -14.917,-7.894 0,11.524 c 5.623,-0.989 10.686,-5.203 14.539,-11.524 l -14.539,0 z m 0,-27.364 0,22.241 17.198,0 c 2.763,-6.293 4.498,-13.942 4.798,-22.241 l -21.996,0 z m 0,-28.303 0,23.181 21.996,0 c -0.315,-8.72 -2.22,-16.717 -5.226,-23.181 l -16.77,0 z m 0,-5.12 13.959,0 c -3.777,-5.802 -8.616,-9.649 -13.959,-10.59 l 0,10.59 z m -5.122,0 0,-10.59 c -5.345,0.941 -10.185,4.788 -13.962,10.59 l 13.962,0 z m 0,28.301 0,-23.181 -16.774,0 c -3.006,6.464 -4.909,14.461 -5.223,23.181 l 21.997,0 z m 0,27.363 0,-22.241 -21.997,0 c 0.299,8.299 2.033,15.948 4.795,22.241 l 17.202,0 z m 0,5.123 -14.541,0 c 3.853,6.321 8.917,10.535 14.541,11.524 l 0,-11.524 z m 2.561,16.871 c -25.805,0 -46.798,-20.994 -46.798,-46.797 0,-25.805 20.993,-46.797 46.798,-46.797 25.804,0 46.794,20.992 46.794,46.797 0,25.803 -20.99,46.797 -46.794,46.797"
         style="fill:#ffffff;fill-opacity:1;fill-rule:nonzero;stroke:none"
         id="path134"
         inkscape:connector-curvature="0" /><path
         d="m 152.1572,209.4414 -10.226,0 0,11.628 33.621,0 0,-11.628 -10.157,0 0,-40.204 -13.238,0 0,40.204 z"
         style="fill:#cb54b1;fill-opacity:1;fill-rule:nonzero;stroke:none"
         id="path138"
         inkscape:connector-curvature="0" /><path
         d="m 201.6104,179.8838 c 9.386,0 13.938,8.545 13.938,15.2 0,6.723 -4.552,15.339 -14.078,15.339 -9.176,0 -14.149,-7.846 -14.149,-15.13 0,-7.984 5.393,-15.409 14.289,-15.409 m -0.21,42.165 c 15.97,0 27.386,-12.467 27.386,-26.896 0,-14.428 -11.347,-26.897 -27.457,-26.897 -16.32,0 -27.246,12.959 -27.246,26.267 0,3.432 0.49,7.284 2.031,11.067 2.732,6.723 10.787,16.459 25.286,16.459"
         style="fill:#cb54b1;fill-opacity:1;fill-rule:nonzero;stroke:none"
         id="path142"
         inkscape:connector-curvature="0" /><path
         d="m 245.0977,195.0137 4.693,0 c 7.775,0 8.685,4.902 8.685,7.425 0,4.691 -3.432,7.003 -8.545,7.003 l -4.833,0 0,-14.428 z m -12.678,26.056 16.39,0 c 9.106,0 12.608,-1.12 15.97,-3.713 4.272,-3.363 6.374,-8.824 6.374,-14.148 0,-5.955 -3.082,-14.71 -12.888,-16.32 l 14.079,-17.651 -15.13,0 -11.977,16.74 -0.14,0 0,-16.74 -12.678,0 0,51.832 z"
         style="fill:#cb54b1;fill-opacity:1;fill-rule:nonzero;stroke:none"
         id="path146"
         inkscape:connector-curvature="0" /><path
         d="m 310.0918,180.374 0,-11.137 -36.564,0 0,10.297 c 6.514,4.272 10.926,7.144 15.83,12.608 1.61,1.82 7.145,7.984 7.145,13.237 0,2.101 -1.191,5.044 -4.903,5.044 -5.183,0 -5.744,-5.183 -5.953,-8.195 l -12.609,0 c 0.14,3.362 0.281,7.633 3.082,11.907 4.413,6.864 12.188,7.914 15.971,7.914 11.558,0 17.649,-7.705 17.649,-15.06 0,-10.996 -9.036,-19.401 -17.231,-26.615 l 17.583,0 z"
         style="fill:#231f20;fill-opacity:1;fill-rule:nonzero;stroke:none"
         id="path150"
         inkscape:connector-curvature="0" /><path
         d="m 326.6855,172.1084 0.139,0 13.237,48.961 1.472,0 13.379,-48.961 0.14,0 13.868,48.961 2.17,0 -14.847,-51.832 -2.732,0 -12.68,46.298 -0.138,0 -12.537,-46.298 -2.804,0 -14.778,51.832 2.243,0 13.868,-48.961 z"
         style="fill:#231f20;fill-opacity:1;fill-rule:nonzero;stroke:none"
         id="path154"
         inkscape:connector-curvature="0" /><path
         d="m 402.251,221.0693 0,-1.893 -26.335,0 0,-22.902 26.335,0 0,-1.893 -26.335,0 0,-23.254 26.335,0 0,-1.89 -28.437,0 0,51.832 28.437,0 z"
         style="fill:#231f20;fill-opacity:1;fill-rule:nonzero;stroke:none"
         id="path158"
         inkscape:connector-curvature="0" /><path
         d="m 410.7207,171.127 10.926,0 c 2.733,0 5.323,0.351 7.425,1.123 3.921,1.679 6.795,5.041 6.864,10.785 0,5.183 -2.732,9.245 -7.005,11.138 -2.799,1.19 -4.621,1.261 -8.824,1.261 l -9.386,0 0,-24.307 z m 0,26.197 9.386,0 c 3.081,0 5.532,0.35 7.354,1.331 4.344,2.452 5.253,6.024 5.253,9.665 0,4.695 -2.591,8.125 -5.253,9.317 -1.47,0.84 -3.362,1.471 -7.844,1.54 l -8.896,0 0,-21.853 z m 8.896,23.745 c 4.412,0 7.074,-0.7 9.105,-1.892 4.763,-2.52 6.094,-7.284 6.094,-11.136 0,-1.401 0,-8.125 -7.144,-11.278 l 0,-0.139 c 9.595,-2.731 10.365,-11.138 10.365,-13.589 -0.07,-6.373 -3.151,-10.435 -8.195,-12.607 -2.24,-0.771 -4.974,-1.191 -8.266,-1.191 l -12.957,0 0,51.832 10.998,0 z"
         style="fill:#231f20;fill-opacity:1;fill-rule:nonzero;stroke:none"
         id="path162"
         inkscape:connector-curvature="0" /></g></g></svg>